<?xml version="1.0" encoding="utf-8" standalone="no"?>
<!DOCTYPE svg PUBLIC "-//W3C//DTD SVG 1.1//EN"
  "http://www.w3.org/Graphics/SVG/1.1/DTD/svg11.dtd">
<svg xmlns:xlink="http://www.w3.org/1999/xlink" width="708.863437pt" height="291.6pt" viewBox="0 0 708.863437 291.6" xmlns="http://www.w3.org/2000/svg" version="1.1">
 <metadata>
  <rdf:RDF xmlns:dc="http://purl.org/dc/elements/1.1/" xmlns:cc="http://creativecommons.org/ns#" xmlns:rdf="http://www.w3.org/1999/02/22-rdf-syntax-ns#">
   <cc:Work>
    <dc:type rdf:resource="http://purl.org/dc/dcmitype/StillImage"/>
    <dc:date>2026-08-06T23:47:18.737396</dc:date>
    <dc:format>image/svg+xml</dc:format>
    <dc:creator>
     <cc:Agent>
      <dc:title>Matplotlib v3.10.8, https://matplotlib.org/</dc:title>
     </cc:Agent>
    </dc:creator>
   </cc:Work>
  </rdf:RDF>
 </metadata>
 <defs>
  <style type="text/css">*{stroke-linejoin: round; stroke-linecap: butt}</style>
 </defs>
 <g id="figure_1">
  <g id="patch_1">
   <path d="M 0 291.6 
L 708.863437 291.6 
L 708.863437 0 
L 0 0 
z
" style="fill: #ffffff"/>
  </g>
  <g id="axes_1">
   <g id="patch_2">
    <path d="M 83.801719 242.82 
L 337.691719 242.82 
Q 340.481719 242.82 340.481719 240.048 
L 340.481719 54.324 
Q 340.481719 51.552 337.691719 51.552 
L 83.801719 51.552 
Q 81.011719 51.552 81.011719 54.324 
L 81.011719 240.048 
Q 81.011719 242.82 83.801719 242.82 
z
" clip-path="url(#p74bb7a5fe8)" style="fill: #e9f0f4; stroke: #174f6b; stroke-width: 1.6; stroke-linejoin: miter"/>
   </g>
   <g id="patch_3">
    <path d="M 371.171719 242.82 
L 625.061719 242.82 
Q 627.851719 242.82 627.851719 240.048 
L 627.851719 54.324 
Q 627.851719 51.552 625.061719 51.552 
L 371.171719 51.552 
Q 368.381719 51.552 368.381719 54.324 
L 368.381719 240.048 
Q 368.381719 242.82 371.171719 242.82 
z
" clip-path="url(#p74bb7a5fe8)" style="fill: #f4ece2; stroke: #8a5b22; stroke-width: 1.6; stroke-linejoin: miter"/>
   </g>
   <g id="patch_4">
    <path d="M 339.688517 145.8 
Q 353.035129 145.8 366.381741 145.8 
" clip-path="url(#p74bb7a5fe8)" style="fill: none; stroke: #8a5b22; stroke-width: 2; stroke-linecap: round"/>
    <path d="M 339.688517 127.8 
L 339.688517 127.8 
L 339.688517 163.8 
L 339.688517 163.8 
" clip-path="url(#p74bb7a5fe8)" style="fill: none; stroke: #8a5b22; stroke-width: 2; stroke-linecap: round"/>
    <path d="M 366.381741 163.8 
L 366.381741 163.8 
L 366.381741 127.8 
L 366.381741 127.8 
" clip-path="url(#p74bb7a5fe8)" style="fill: none; stroke: #8a5b22; stroke-width: 2; stroke-linecap: round"/>
   </g>
   <g id="text_1">
    <!-- Detector-admissible plane -->
    <g style="fill: #17313f" transform="translate(106.812031 76.5) scale(0.14 -0.14)">
     <defs>
      <path id="DejaVuSans-Bold-44" d="M 1791 3756 
L 1791 909 
L 2222 909 
Q 2959 909 3348 1275 
Q 3738 1641 3738 2338 
Q 3738 3031 3350 3393 
Q 2963 3756 2222 3756 
L 1791 3756 
z
M 588 4666 
L 1856 4666 
Q 2919 4666 3439 4514 
Q 3959 4363 4331 4000 
Q 4659 3684 4818 3271 
Q 4978 2859 4978 2338 
Q 4978 1809 4818 1395 
Q 4659 981 4331 666 
Q 3956 303 3431 151 
Q 2906 0 1856 0 
L 588 0 
L 588 4666 
z
" transform="scale(0.015625)"/>
      <path id="DejaVuSans-Bold-65" d="M 4031 1759 
L 4031 1441 
L 1416 1441 
Q 1456 1047 1700 850 
Q 1944 653 2381 653 
Q 2734 653 3104 758 
Q 3475 863 3866 1075 
L 3866 213 
Q 3469 63 3072 -14 
Q 2675 -91 2278 -91 
Q 1328 -91 801 392 
Q 275 875 275 1747 
Q 275 2603 792 3093 
Q 1309 3584 2216 3584 
Q 3041 3584 3536 3087 
Q 4031 2591 4031 1759 
z
M 2881 2131 
Q 2881 2450 2695 2645 
Q 2509 2841 2209 2841 
Q 1884 2841 1681 2658 
Q 1478 2475 1428 2131 
L 2881 2131 
z
" transform="scale(0.015625)"/>
      <path id="DejaVuSans-Bold-74" d="M 1759 4494 
L 1759 3500 
L 2913 3500 
L 2913 2700 
L 1759 2700 
L 1759 1216 
Q 1759 972 1856 886 
Q 1953 800 2241 800 
L 2816 800 
L 2816 0 
L 1856 0 
Q 1194 0 917 276 
Q 641 553 641 1216 
L 641 2700 
L 84 2700 
L 84 3500 
L 641 3500 
L 641 4494 
L 1759 4494 
z
" transform="scale(0.015625)"/>
      <path id="DejaVuSans-Bold-63" d="M 3366 3391 
L 3366 2478 
Q 3138 2634 2908 2709 
Q 2678 2784 2431 2784 
Q 1963 2784 1702 2511 
Q 1441 2238 1441 1747 
Q 1441 1256 1702 982 
Q 1963 709 2431 709 
Q 2694 709 2930 787 
Q 3166 866 3366 1019 
L 3366 103 
Q 3103 6 2833 -42 
Q 2563 -91 2291 -91 
Q 1344 -91 809 395 
Q 275 881 275 1747 
Q 275 2613 809 3098 
Q 1344 3584 2291 3584 
Q 2566 3584 2833 3536 
Q 3100 3488 3366 3391 
z
" transform="scale(0.015625)"/>
      <path id="DejaVuSans-Bold-6f" d="M 2203 2784 
Q 1831 2784 1636 2517 
Q 1441 2250 1441 1747 
Q 1441 1244 1636 976 
Q 1831 709 2203 709 
Q 2569 709 2762 976 
Q 2956 1244 2956 1747 
Q 2956 2250 2762 2517 
Q 2569 2784 2203 2784 
z
M 2203 3584 
Q 3106 3584 3614 3096 
Q 4122 2609 4122 1747 
Q 4122 884 3614 396 
Q 3106 -91 2203 -91 
Q 1297 -91 786 396 
Q 275 884 275 1747 
Q 275 2609 786 3096 
Q 1297 3584 2203 3584 
z
" transform="scale(0.015625)"/>
      <path id="DejaVuSans-Bold-72" d="M 3138 2547 
Q 2991 2616 2845 2648 
Q 2700 2681 2553 2681 
Q 2122 2681 1889 2404 
Q 1656 2128 1656 1613 
L 1656 0 
L 538 0 
L 538 3500 
L 1656 3500 
L 1656 2925 
Q 1872 3269 2151 3426 
Q 2431 3584 2822 3584 
Q 2878 3584 2943 3579 
Q 3009 3575 3134 3559 
L 3138 2547 
z
" transform="scale(0.015625)"/>
      <path id="DejaVuSans-Bold-2d" d="M 347 2297 
L 2309 2297 
L 2309 1388 
L 347 1388 
L 347 2297 
z
" transform="scale(0.015625)"/>
      <path id="DejaVuSans-Bold-61" d="M 2106 1575 
Q 1756 1575 1579 1456 
Q 1403 1338 1403 1106 
Q 1403 894 1545 773 
Q 1688 653 1941 653 
Q 2256 653 2472 879 
Q 2688 1106 2688 1447 
L 2688 1575 
L 2106 1575 
z
M 3816 1997 
L 3816 0 
L 2688 0 
L 2688 519 
Q 2463 200 2181 54 
Q 1900 -91 1497 -91 
Q 953 -91 614 226 
Q 275 544 275 1050 
Q 275 1666 698 1953 
Q 1122 2241 2028 2241 
L 2688 2241 
L 2688 2328 
Q 2688 2594 2478 2717 
Q 2269 2841 1825 2841 
Q 1466 2841 1156 2769 
Q 847 2697 581 2553 
L 581 3406 
Q 941 3494 1303 3539 
Q 1666 3584 2028 3584 
Q 2975 3584 3395 3211 
Q 3816 2838 3816 1997 
z
" transform="scale(0.015625)"/>
      <path id="DejaVuSans-Bold-64" d="M 2919 2988 
L 2919 4863 
L 4044 4863 
L 4044 0 
L 2919 0 
L 2919 506 
Q 2688 197 2409 53 
Q 2131 -91 1766 -91 
Q 1119 -91 703 423 
Q 288 938 288 1747 
Q 288 2556 703 3070 
Q 1119 3584 1766 3584 
Q 2128 3584 2408 3439 
Q 2688 3294 2919 2988 
z
M 2181 722 
Q 2541 722 2730 984 
Q 2919 1247 2919 1747 
Q 2919 2247 2730 2509 
Q 2541 2772 2181 2772 
Q 1825 2772 1636 2509 
Q 1447 2247 1447 1747 
Q 1447 1247 1636 984 
Q 1825 722 2181 722 
z
" transform="scale(0.015625)"/>
      <path id="DejaVuSans-Bold-6d" d="M 3781 2919 
Q 3994 3244 4286 3414 
Q 4578 3584 4928 3584 
Q 5531 3584 5847 3212 
Q 6163 2841 6163 2131 
L 6163 0 
L 5038 0 
L 5038 1825 
Q 5041 1866 5042 1909 
Q 5044 1953 5044 2034 
Q 5044 2406 4934 2573 
Q 4825 2741 4581 2741 
Q 4263 2741 4089 2478 
Q 3916 2216 3909 1719 
L 3909 0 
L 2784 0 
L 2784 1825 
Q 2784 2406 2684 2573 
Q 2584 2741 2328 2741 
Q 2006 2741 1831 2477 
Q 1656 2213 1656 1722 
L 1656 0 
L 531 0 
L 531 3500 
L 1656 3500 
L 1656 2988 
Q 1863 3284 2130 3434 
Q 2397 3584 2719 3584 
Q 3081 3584 3359 3409 
Q 3638 3234 3781 2919 
z
" transform="scale(0.015625)"/>
      <path id="DejaVuSans-Bold-69" d="M 538 3500 
L 1656 3500 
L 1656 0 
L 538 0 
L 538 3500 
z
M 538 4863 
L 1656 4863 
L 1656 3950 
L 538 3950 
L 538 4863 
z
" transform="scale(0.015625)"/>
      <path id="DejaVuSans-Bold-73" d="M 3272 3391 
L 3272 2541 
Q 2913 2691 2578 2766 
Q 2244 2841 1947 2841 
Q 1628 2841 1473 2761 
Q 1319 2681 1319 2516 
Q 1319 2381 1436 2309 
Q 1553 2238 1856 2203 
L 2053 2175 
Q 2913 2066 3209 1816 
Q 3506 1566 3506 1031 
Q 3506 472 3093 190 
Q 2681 -91 1863 -91 
Q 1516 -91 1145 -36 
Q 775 19 384 128 
L 384 978 
Q 719 816 1070 734 
Q 1422 653 1784 653 
Q 2113 653 2278 743 
Q 2444 834 2444 1013 
Q 2444 1163 2330 1236 
Q 2216 1309 1875 1350 
L 1678 1375 
Q 931 1469 631 1722 
Q 331 1975 331 2491 
Q 331 3047 712 3315 
Q 1094 3584 1881 3584 
Q 2191 3584 2531 3537 
Q 2872 3491 3272 3391 
z
" transform="scale(0.015625)"/>
      <path id="DejaVuSans-Bold-62" d="M 2400 722 
Q 2759 722 2948 984 
Q 3138 1247 3138 1747 
Q 3138 2247 2948 2509 
Q 2759 2772 2400 2772 
Q 2041 2772 1848 2508 
Q 1656 2244 1656 1747 
Q 1656 1250 1848 986 
Q 2041 722 2400 722 
z
M 1656 2988 
Q 1888 3294 2169 3439 
Q 2450 3584 2816 3584 
Q 3463 3584 3878 3070 
Q 4294 2556 4294 1747 
Q 4294 938 3878 423 
Q 3463 -91 2816 -91 
Q 2450 -91 2169 54 
Q 1888 200 1656 506 
L 1656 0 
L 538 0 
L 538 4863 
L 1656 4863 
L 1656 2988 
z
" transform="scale(0.015625)"/>
      <path id="DejaVuSans-Bold-6c" d="M 538 4863 
L 1656 4863 
L 1656 0 
L 538 0 
L 538 4863 
z
" transform="scale(0.015625)"/>
      <path id="DejaVuSans-Bold-20" transform="scale(0.015625)"/>
      <path id="DejaVuSans-Bold-70" d="M 1656 506 
L 1656 -1331 
L 538 -1331 
L 538 3500 
L 1656 3500 
L 1656 2988 
Q 1888 3294 2169 3439 
Q 2450 3584 2816 3584 
Q 3463 3584 3878 3070 
Q 4294 2556 4294 1747 
Q 4294 938 3878 423 
Q 3463 -91 2816 -91 
Q 2450 -91 2169 54 
Q 1888 200 1656 506 
z
M 2400 2772 
Q 2041 2772 1848 2508 
Q 1656 2244 1656 1747 
Q 1656 1250 1848 986 
Q 2041 722 2400 722 
Q 2759 722 2948 984 
Q 3138 1247 3138 1747 
Q 3138 2247 2948 2509 
Q 2759 2772 2400 2772 
z
" transform="scale(0.015625)"/>
      <path id="DejaVuSans-Bold-6e" d="M 4056 2131 
L 4056 0 
L 2931 0 
L 2931 347 
L 2931 1631 
Q 2931 2084 2911 2256 
Q 2891 2428 2841 2509 
Q 2775 2619 2662 2680 
Q 2550 2741 2406 2741 
Q 2056 2741 1856 2470 
Q 1656 2200 1656 1722 
L 1656 0 
L 538 0 
L 538 3500 
L 1656 3500 
L 1656 2988 
Q 1909 3294 2193 3439 
Q 2478 3584 2822 3584 
Q 3428 3584 3742 3212 
Q 4056 2841 4056 2131 
z
" transform="scale(0.015625)"/>
     </defs>
     <use xlink:href="#DejaVuSans-Bold-44"/>
     <use xlink:href="#DejaVuSans-Bold-65" transform="translate(83.007812 0)"/>
     <use xlink:href="#DejaVuSans-Bold-74" transform="translate(150.830078 0)"/>
     <use xlink:href="#DejaVuSans-Bold-65" transform="translate(198.632812 0)"/>
     <use xlink:href="#DejaVuSans-Bold-63" transform="translate(266.455078 0)"/>
     <use xlink:href="#DejaVuSans-Bold-74" transform="translate(325.732422 0)"/>
     <use xlink:href="#DejaVuSans-Bold-6f" transform="translate(373.535156 0)"/>
     <use xlink:href="#DejaVuSans-Bold-72" transform="translate(442.236328 0)"/>
     <use xlink:href="#DejaVuSans-Bold-2d" transform="translate(491.552734 0)"/>
     <use xlink:href="#DejaVuSans-Bold-61" transform="translate(533.056641 0)"/>
     <use xlink:href="#DejaVuSans-Bold-64" transform="translate(600.537109 0)"/>
     <use xlink:href="#DejaVuSans-Bold-6d" transform="translate(672.119141 0)"/>
     <use xlink:href="#DejaVuSans-Bold-69" transform="translate(776.318359 0)"/>
     <use xlink:href="#DejaVuSans-Bold-73" transform="translate(810.595703 0)"/>
     <use xlink:href="#DejaVuSans-Bold-73" transform="translate(870.117188 0)"/>
     <use xlink:href="#DejaVuSans-Bold-69" transform="translate(929.638672 0)"/>
     <use xlink:href="#DejaVuSans-Bold-62" transform="translate(963.916016 0)"/>
     <use xlink:href="#DejaVuSans-Bold-6c" transform="translate(1035.498047 0)"/>
     <use xlink:href="#DejaVuSans-Bold-65" transform="translate(1069.775391 0)"/>
     <use xlink:href="#DejaVuSans-Bold-20" transform="translate(1137.597656 0)"/>
     <use xlink:href="#DejaVuSans-Bold-70" transform="translate(1172.412109 0)"/>
     <use xlink:href="#DejaVuSans-Bold-6c" transform="translate(1243.994141 0)"/>
     <use xlink:href="#DejaVuSans-Bold-61" transform="translate(1278.271484 0)"/>
     <use xlink:href="#DejaVuSans-Bold-6e" transform="translate(1345.751953 0)"/>
     <use xlink:href="#DejaVuSans-Bold-65" transform="translate(1416.943359 0)"/>
    </g>
   </g>
   <g id="text_2">
    <!-- • code/state available at cutoff -->
    <g style="fill: #17313f" transform="translate(103.331719 109.764) scale(0.105 -0.105)">
     <defs>
      <path id="DejaVuSans-2022" d="M 959 2381 
Q 959 2769 1229 3036 
Q 1500 3303 1894 3303 
Q 2281 3303 2548 3036 
Q 2816 2769 2816 2381 
Q 2816 1991 2547 1722 
Q 2278 1453 1888 1453 
Q 1497 1453 1228 1722 
Q 959 1991 959 2381 
z
" transform="scale(0.015625)"/>
      <path id="DejaVuSans-20" transform="scale(0.015625)"/>
      <path id="DejaVuSans-63" d="M 3122 3366 
L 3122 2828 
Q 2878 2963 2633 3030 
Q 2388 3097 2138 3097 
Q 1578 3097 1268 2742 
Q 959 2388 959 1747 
Q 959 1106 1268 751 
Q 1578 397 2138 397 
Q 2388 397 2633 464 
Q 2878 531 3122 666 
L 3122 134 
Q 2881 22 2623 -34 
Q 2366 -91 2075 -91 
Q 1284 -91 818 406 
Q 353 903 353 1747 
Q 353 2603 823 3093 
Q 1294 3584 2113 3584 
Q 2378 3584 2631 3529 
Q 2884 3475 3122 3366 
z
" transform="scale(0.015625)"/>
      <path id="DejaVuSans-6f" d="M 1959 3097 
Q 1497 3097 1228 2736 
Q 959 2375 959 1747 
Q 959 1119 1226 758 
Q 1494 397 1959 397 
Q 2419 397 2687 759 
Q 2956 1122 2956 1747 
Q 2956 2369 2687 2733 
Q 2419 3097 1959 3097 
z
M 1959 3584 
Q 2709 3584 3137 3096 
Q 3566 2609 3566 1747 
Q 3566 888 3137 398 
Q 2709 -91 1959 -91 
Q 1206 -91 779 398 
Q 353 888 353 1747 
Q 353 2609 779 3096 
Q 1206 3584 1959 3584 
z
" transform="scale(0.015625)"/>
      <path id="DejaVuSans-64" d="M 2906 2969 
L 2906 4863 
L 3481 4863 
L 3481 0 
L 2906 0 
L 2906 525 
Q 2725 213 2448 61 
Q 2172 -91 1784 -91 
Q 1150 -91 751 415 
Q 353 922 353 1747 
Q 353 2572 751 3078 
Q 1150 3584 1784 3584 
Q 2172 3584 2448 3432 
Q 2725 3281 2906 2969 
z
M 947 1747 
Q 947 1113 1208 752 
Q 1469 391 1925 391 
Q 2381 391 2643 752 
Q 2906 1113 2906 1747 
Q 2906 2381 2643 2742 
Q 2381 3103 1925 3103 
Q 1469 3103 1208 2742 
Q 947 2381 947 1747 
z
" transform="scale(0.015625)"/>
      <path id="DejaVuSans-65" d="M 3597 1894 
L 3597 1613 
L 953 1613 
Q 991 1019 1311 708 
Q 1631 397 2203 397 
Q 2534 397 2845 478 
Q 3156 559 3463 722 
L 3463 178 
Q 3153 47 2828 -22 
Q 2503 -91 2169 -91 
Q 1331 -91 842 396 
Q 353 884 353 1716 
Q 353 2575 817 3079 
Q 1281 3584 2069 3584 
Q 2775 3584 3186 3129 
Q 3597 2675 3597 1894 
z
M 3022 2063 
Q 3016 2534 2758 2815 
Q 2500 3097 2075 3097 
Q 1594 3097 1305 2825 
Q 1016 2553 972 2059 
L 3022 2063 
z
" transform="scale(0.015625)"/>
      <path id="DejaVuSans-2f" d="M 1625 4666 
L 2156 4666 
L 531 -594 
L 0 -594 
L 1625 4666 
z
" transform="scale(0.015625)"/>
      <path id="DejaVuSans-73" d="M 2834 3397 
L 2834 2853 
Q 2591 2978 2328 3040 
Q 2066 3103 1784 3103 
Q 1356 3103 1142 2972 
Q 928 2841 928 2578 
Q 928 2378 1081 2264 
Q 1234 2150 1697 2047 
L 1894 2003 
Q 2506 1872 2764 1633 
Q 3022 1394 3022 966 
Q 3022 478 2636 193 
Q 2250 -91 1575 -91 
Q 1294 -91 989 -36 
Q 684 19 347 128 
L 347 722 
Q 666 556 975 473 
Q 1284 391 1588 391 
Q 1994 391 2212 530 
Q 2431 669 2431 922 
Q 2431 1156 2273 1281 
Q 2116 1406 1581 1522 
L 1381 1569 
Q 847 1681 609 1914 
Q 372 2147 372 2553 
Q 372 3047 722 3315 
Q 1072 3584 1716 3584 
Q 2034 3584 2315 3537 
Q 2597 3491 2834 3397 
z
" transform="scale(0.015625)"/>
      <path id="DejaVuSans-74" d="M 1172 4494 
L 1172 3500 
L 2356 3500 
L 2356 3053 
L 1172 3053 
L 1172 1153 
Q 1172 725 1289 603 
Q 1406 481 1766 481 
L 2356 481 
L 2356 0 
L 1766 0 
Q 1100 0 847 248 
Q 594 497 594 1153 
L 594 3053 
L 172 3053 
L 172 3500 
L 594 3500 
L 594 4494 
L 1172 4494 
z
" transform="scale(0.015625)"/>
      <path id="DejaVuSans-61" d="M 2194 1759 
Q 1497 1759 1228 1600 
Q 959 1441 959 1056 
Q 959 750 1161 570 
Q 1363 391 1709 391 
Q 2188 391 2477 730 
Q 2766 1069 2766 1631 
L 2766 1759 
L 2194 1759 
z
M 3341 1997 
L 3341 0 
L 2766 0 
L 2766 531 
Q 2569 213 2275 61 
Q 1981 -91 1556 -91 
Q 1019 -91 701 211 
Q 384 513 384 1019 
Q 384 1609 779 1909 
Q 1175 2209 1959 2209 
L 2766 2209 
L 2766 2266 
Q 2766 2663 2505 2880 
Q 2244 3097 1772 3097 
Q 1472 3097 1187 3025 
Q 903 2953 641 2809 
L 641 3341 
Q 956 3463 1253 3523 
Q 1550 3584 1831 3584 
Q 2591 3584 2966 3190 
Q 3341 2797 3341 1997 
z
" transform="scale(0.015625)"/>
      <path id="DejaVuSans-76" d="M 191 3500 
L 800 3500 
L 1894 563 
L 2988 3500 
L 3597 3500 
L 2284 0 
L 1503 0 
L 191 3500 
z
" transform="scale(0.015625)"/>
      <path id="DejaVuSans-69" d="M 603 3500 
L 1178 3500 
L 1178 0 
L 603 0 
L 603 3500 
z
M 603 4863 
L 1178 4863 
L 1178 4134 
L 603 4134 
L 603 4863 
z
" transform="scale(0.015625)"/>
      <path id="DejaVuSans-6c" d="M 603 4863 
L 1178 4863 
L 1178 0 
L 603 0 
L 603 4863 
z
" transform="scale(0.015625)"/>
      <path id="DejaVuSans-62" d="M 3116 1747 
Q 3116 2381 2855 2742 
Q 2594 3103 2138 3103 
Q 1681 3103 1420 2742 
Q 1159 2381 1159 1747 
Q 1159 1113 1420 752 
Q 1681 391 2138 391 
Q 2594 391 2855 752 
Q 3116 1113 3116 1747 
z
M 1159 2969 
Q 1341 3281 1617 3432 
Q 1894 3584 2278 3584 
Q 2916 3584 3314 3078 
Q 3713 2572 3713 1747 
Q 3713 922 3314 415 
Q 2916 -91 2278 -91 
Q 1894 -91 1617 61 
Q 1341 213 1159 525 
L 1159 0 
L 581 0 
L 581 4863 
L 1159 4863 
L 1159 2969 
z
" transform="scale(0.015625)"/>
      <path id="DejaVuSans-75" d="M 544 1381 
L 544 3500 
L 1119 3500 
L 1119 1403 
Q 1119 906 1312 657 
Q 1506 409 1894 409 
Q 2359 409 2629 706 
Q 2900 1003 2900 1516 
L 2900 3500 
L 3475 3500 
L 3475 0 
L 2900 0 
L 2900 538 
Q 2691 219 2414 64 
Q 2138 -91 1772 -91 
Q 1169 -91 856 284 
Q 544 659 544 1381 
z
M 1991 3584 
L 1991 3584 
z
" transform="scale(0.015625)"/>
      <path id="DejaVuSans-66" d="M 2375 4863 
L 2375 4384 
L 1825 4384 
Q 1516 4384 1395 4259 
Q 1275 4134 1275 3809 
L 1275 3500 
L 2222 3500 
L 2222 3053 
L 1275 3053 
L 1275 0 
L 697 0 
L 697 3053 
L 147 3053 
L 147 3500 
L 697 3500 
L 697 3744 
Q 697 4328 969 4595 
Q 1241 4863 1831 4863 
L 2375 4863 
z
" transform="scale(0.015625)"/>
     </defs>
     <use xlink:href="#DejaVuSans-2022"/>
     <use xlink:href="#DejaVuSans-20" transform="translate(58.984375 0)"/>
     <use xlink:href="#DejaVuSans-63" transform="translate(90.771484 0)"/>
     <use xlink:href="#DejaVuSans-6f" transform="translate(145.751953 0)"/>
     <use xlink:href="#DejaVuSans-64" transform="translate(206.933594 0)"/>
     <use xlink:href="#DejaVuSans-65" transform="translate(270.410156 0)"/>
     <use xlink:href="#DejaVuSans-2f" transform="translate(331.933594 0)"/>
     <use xlink:href="#DejaVuSans-73" transform="translate(365.625 0)"/>
     <use xlink:href="#DejaVuSans-74" transform="translate(417.724609 0)"/>
     <use xlink:href="#DejaVuSans-61" transform="translate(456.933594 0)"/>
     <use xlink:href="#DejaVuSans-74" transform="translate(518.212891 0)"/>
     <use xlink:href="#DejaVuSans-65" transform="translate(557.421875 0)"/>
     <use xlink:href="#DejaVuSans-20" transform="translate(618.945312 0)"/>
     <use xlink:href="#DejaVuSans-61" transform="translate(650.732422 0)"/>
     <use xlink:href="#DejaVuSans-76" transform="translate(712.011719 0)"/>
     <use xlink:href="#DejaVuSans-61" transform="translate(771.191406 0)"/>
     <use xlink:href="#DejaVuSans-69" transform="translate(832.470703 0)"/>
     <use xlink:href="#DejaVuSans-6c" transform="translate(860.253906 0)"/>
     <use xlink:href="#DejaVuSans-61" transform="translate(888.037109 0)"/>
     <use xlink:href="#DejaVuSans-62" transform="translate(949.316406 0)"/>
     <use xlink:href="#DejaVuSans-6c" transform="translate(1012.792969 0)"/>
     <use xlink:href="#DejaVuSans-65" transform="translate(1040.576172 0)"/>
     <use xlink:href="#DejaVuSans-20" transform="translate(1102.099609 0)"/>
     <use xlink:href="#DejaVuSans-61" transform="translate(1133.886719 0)"/>
     <use xlink:href="#DejaVuSans-74" transform="translate(1195.166016 0)"/>
     <use xlink:href="#DejaVuSans-20" transform="translate(1234.375 0)"/>
     <use xlink:href="#DejaVuSans-63" transform="translate(1266.162109 0)"/>
     <use xlink:href="#DejaVuSans-75" transform="translate(1321.142578 0)"/>
     <use xlink:href="#DejaVuSans-74" transform="translate(1384.521484 0)"/>
     <use xlink:href="#DejaVuSans-6f" transform="translate(1423.730469 0)"/>
     <use xlink:href="#DejaVuSans-66" transform="translate(1484.912109 0)"/>
     <use xlink:href="#DejaVuSans-66" transform="translate(1520.117188 0)"/>
    </g>
   </g>
   <g id="text_3">
    <!-- • deployment-time metadata -->
    <g style="fill: #17313f" transform="translate(103.331719 141.9192) scale(0.105 -0.105)">
     <defs>
      <path id="DejaVuSans-70" d="M 1159 525 
L 1159 -1331 
L 581 -1331 
L 581 3500 
L 1159 3500 
L 1159 2969 
Q 1341 3281 1617 3432 
Q 1894 3584 2278 3584 
Q 2916 3584 3314 3078 
Q 3713 2572 3713 1747 
Q 3713 922 3314 415 
Q 2916 -91 2278 -91 
Q 1894 -91 1617 61 
Q 1341 213 1159 525 
z
M 3116 1747 
Q 3116 2381 2855 2742 
Q 2594 3103 2138 3103 
Q 1681 3103 1420 2742 
Q 1159 2381 1159 1747 
Q 1159 1113 1420 752 
Q 1681 391 2138 391 
Q 2594 391 2855 752 
Q 3116 1113 3116 1747 
z
" transform="scale(0.015625)"/>
      <path id="DejaVuSans-79" d="M 2059 -325 
Q 1816 -950 1584 -1140 
Q 1353 -1331 966 -1331 
L 506 -1331 
L 506 -850 
L 844 -850 
Q 1081 -850 1212 -737 
Q 1344 -625 1503 -206 
L 1606 56 
L 191 3500 
L 800 3500 
L 1894 763 
L 2988 3500 
L 3597 3500 
L 2059 -325 
z
" transform="scale(0.015625)"/>
      <path id="DejaVuSans-6d" d="M 3328 2828 
Q 3544 3216 3844 3400 
Q 4144 3584 4550 3584 
Q 5097 3584 5394 3201 
Q 5691 2819 5691 2113 
L 5691 0 
L 5113 0 
L 5113 2094 
Q 5113 2597 4934 2840 
Q 4756 3084 4391 3084 
Q 3944 3084 3684 2787 
Q 3425 2491 3425 1978 
L 3425 0 
L 2847 0 
L 2847 2094 
Q 2847 2600 2669 2842 
Q 2491 3084 2119 3084 
Q 1678 3084 1418 2786 
Q 1159 2488 1159 1978 
L 1159 0 
L 581 0 
L 581 3500 
L 1159 3500 
L 1159 2956 
Q 1356 3278 1631 3431 
Q 1906 3584 2284 3584 
Q 2666 3584 2933 3390 
Q 3200 3197 3328 2828 
z
" transform="scale(0.015625)"/>
      <path id="DejaVuSans-6e" d="M 3513 2113 
L 3513 0 
L 2938 0 
L 2938 2094 
Q 2938 2591 2744 2837 
Q 2550 3084 2163 3084 
Q 1697 3084 1428 2787 
Q 1159 2491 1159 1978 
L 1159 0 
L 581 0 
L 581 3500 
L 1159 3500 
L 1159 2956 
Q 1366 3272 1645 3428 
Q 1925 3584 2291 3584 
Q 2894 3584 3203 3211 
Q 3513 2838 3513 2113 
z
" transform="scale(0.015625)"/>
      <path id="DejaVuSans-2d" d="M 313 2009 
L 1997 2009 
L 1997 1497 
L 313 1497 
L 313 2009 
z
" transform="scale(0.015625)"/>
     </defs>
     <use xlink:href="#DejaVuSans-2022"/>
     <use xlink:href="#DejaVuSans-20" transform="translate(58.984375 0)"/>
     <use xlink:href="#DejaVuSans-64" transform="translate(90.771484 0)"/>
     <use xlink:href="#DejaVuSans-65" transform="translate(154.248047 0)"/>
     <use xlink:href="#DejaVuSans-70" transform="translate(215.771484 0)"/>
     <use xlink:href="#DejaVuSans-6c" transform="translate(279.248047 0)"/>
     <use xlink:href="#DejaVuSans-6f" transform="translate(307.03125 0)"/>
     <use xlink:href="#DejaVuSans-79" transform="translate(368.212891 0)"/>
     <use xlink:href="#DejaVuSans-6d" transform="translate(427.392578 0)"/>
     <use xlink:href="#DejaVuSans-65" transform="translate(524.804688 0)"/>
     <use xlink:href="#DejaVuSans-6e" transform="translate(586.328125 0)"/>
     <use xlink:href="#DejaVuSans-74" transform="translate(649.707031 0)"/>
     <use xlink:href="#DejaVuSans-2d" transform="translate(688.916016 0)"/>
     <use xlink:href="#DejaVuSans-74" transform="translate(725 0)"/>
     <use xlink:href="#DejaVuSans-69" transform="translate(764.208984 0)"/>
     <use xlink:href="#DejaVuSans-6d" transform="translate(791.992188 0)"/>
     <use xlink:href="#DejaVuSans-65" transform="translate(889.404297 0)"/>
     <use xlink:href="#DejaVuSans-20" transform="translate(950.927734 0)"/>
     <use xlink:href="#DejaVuSans-6d" transform="translate(982.714844 0)"/>
     <use xlink:href="#DejaVuSans-65" transform="translate(1080.126953 0)"/>
     <use xlink:href="#DejaVuSans-74" transform="translate(1141.650391 0)"/>
     <use xlink:href="#DejaVuSans-61" transform="translate(1180.859375 0)"/>
     <use xlink:href="#DejaVuSans-64" transform="translate(1242.138672 0)"/>
     <use xlink:href="#DejaVuSans-61" transform="translate(1305.615234 0)"/>
     <use xlink:href="#DejaVuSans-74" transform="translate(1366.894531 0)"/>
     <use xlink:href="#DejaVuSans-61" transform="translate(1406.103516 0)"/>
    </g>
   </g>
   <g id="text_4">
    <!-- • frozen retrieval corpus -->
    <g style="fill: #17313f" transform="translate(103.331719 174.0744) scale(0.105 -0.105)">
     <defs>
      <path id="DejaVuSans-72" d="M 2631 2963 
Q 2534 3019 2420 3045 
Q 2306 3072 2169 3072 
Q 1681 3072 1420 2755 
Q 1159 2438 1159 1844 
L 1159 0 
L 581 0 
L 581 3500 
L 1159 3500 
L 1159 2956 
Q 1341 3275 1631 3429 
Q 1922 3584 2338 3584 
Q 2397 3584 2469 3576 
Q 2541 3569 2628 3553 
L 2631 2963 
z
" transform="scale(0.015625)"/>
      <path id="DejaVuSans-7a" d="M 353 3500 
L 3084 3500 
L 3084 2975 
L 922 459 
L 3084 459 
L 3084 0 
L 275 0 
L 275 525 
L 2438 3041 
L 353 3041 
L 353 3500 
z
" transform="scale(0.015625)"/>
     </defs>
     <use xlink:href="#DejaVuSans-2022"/>
     <use xlink:href="#DejaVuSans-20" transform="translate(58.984375 0)"/>
     <use xlink:href="#DejaVuSans-66" transform="translate(90.771484 0)"/>
     <use xlink:href="#DejaVuSans-72" transform="translate(125.976562 0)"/>
     <use xlink:href="#DejaVuSans-6f" transform="translate(164.839844 0)"/>
     <use xlink:href="#DejaVuSans-7a" transform="translate(226.021484 0)"/>
     <use xlink:href="#DejaVuSans-65" transform="translate(278.511719 0)"/>
     <use xlink:href="#DejaVuSans-6e" transform="translate(340.035156 0)"/>
     <use xlink:href="#DejaVuSans-20" transform="translate(403.414062 0)"/>
     <use xlink:href="#DejaVuSans-72" transform="translate(435.201172 0)"/>
     <use xlink:href="#DejaVuSans-65" transform="translate(474.064453 0)"/>
     <use xlink:href="#DejaVuSans-74" transform="translate(535.587891 0)"/>
     <use xlink:href="#DejaVuSans-72" transform="translate(574.796875 0)"/>
     <use xlink:href="#DejaVuSans-69" transform="translate(615.910156 0)"/>
     <use xlink:href="#DejaVuSans-65" transform="translate(643.693359 0)"/>
     <use xlink:href="#DejaVuSans-76" transform="translate(705.216797 0)"/>
     <use xlink:href="#DejaVuSans-61" transform="translate(764.396484 0)"/>
     <use xlink:href="#DejaVuSans-6c" transform="translate(825.675781 0)"/>
     <use xlink:href="#DejaVuSans-20" transform="translate(853.458984 0)"/>
     <use xlink:href="#DejaVuSans-63" transform="translate(885.246094 0)"/>
     <use xlink:href="#DejaVuSans-6f" transform="translate(940.226562 0)"/>
     <use xlink:href="#DejaVuSans-72" transform="translate(1001.408203 0)"/>
     <use xlink:href="#DejaVuSans-70" transform="translate(1042.521484 0)"/>
     <use xlink:href="#DejaVuSans-75" transform="translate(1105.998047 0)"/>
     <use xlink:href="#DejaVuSans-73" transform="translate(1169.376953 0)"/>
    </g>
   </g>
   <g id="text_5">
    <!-- • no incident explanations -->
    <g style="fill: #17313f" transform="translate(103.331719 206.2296) scale(0.105 -0.105)">
     <defs>
      <path id="DejaVuSans-78" d="M 3513 3500 
L 2247 1797 
L 3578 0 
L 2900 0 
L 1881 1375 
L 863 0 
L 184 0 
L 1544 1831 
L 300 3500 
L 978 3500 
L 1906 2253 
L 2834 3500 
L 3513 3500 
z
" transform="scale(0.015625)"/>
     </defs>
     <use xlink:href="#DejaVuSans-2022"/>
     <use xlink:href="#DejaVuSans-20" transform="translate(58.984375 0)"/>
     <use xlink:href="#DejaVuSans-6e" transform="translate(90.771484 0)"/>
     <use xlink:href="#DejaVuSans-6f" transform="translate(154.150391 0)"/>
     <use xlink:href="#DejaVuSans-20" transform="translate(215.332031 0)"/>
     <use xlink:href="#DejaVuSans-69" transform="translate(247.119141 0)"/>
     <use xlink:href="#DejaVuSans-6e" transform="translate(274.902344 0)"/>
     <use xlink:href="#DejaVuSans-63" transform="translate(338.28125 0)"/>
     <use xlink:href="#DejaVuSans-69" transform="translate(393.261719 0)"/>
     <use xlink:href="#DejaVuSans-64" transform="translate(421.044922 0)"/>
     <use xlink:href="#DejaVuSans-65" transform="translate(484.521484 0)"/>
     <use xlink:href="#DejaVuSans-6e" transform="translate(546.044922 0)"/>
     <use xlink:href="#DejaVuSans-74" transform="translate(609.423828 0)"/>
     <use xlink:href="#DejaVuSans-20" transform="translate(648.632812 0)"/>
     <use xlink:href="#DejaVuSans-65" transform="translate(680.419922 0)"/>
     <use xlink:href="#DejaVuSans-78" transform="translate(740.193359 0)"/>
     <use xlink:href="#DejaVuSans-70" transform="translate(799.373047 0)"/>
     <use xlink:href="#DejaVuSans-6c" transform="translate(862.849609 0)"/>
     <use xlink:href="#DejaVuSans-61" transform="translate(890.632812 0)"/>
     <use xlink:href="#DejaVuSans-6e" transform="translate(951.912109 0)"/>
     <use xlink:href="#DejaVuSans-61" transform="translate(1015.291016 0)"/>
     <use xlink:href="#DejaVuSans-74" transform="translate(1076.570312 0)"/>
     <use xlink:href="#DejaVuSans-69" transform="translate(1115.779297 0)"/>
     <use xlink:href="#DejaVuSans-6f" transform="translate(1143.5625 0)"/>
     <use xlink:href="#DejaVuSans-6e" transform="translate(1204.744141 0)"/>
     <use xlink:href="#DejaVuSans-73" transform="translate(1268.123047 0)"/>
    </g>
   </g>
   <g id="text_6">
    <!-- Evaluator-only plane -->
    <g style="fill: #17313f" transform="translate(416.372031 76.5) scale(0.14 -0.14)">
     <defs>
      <path id="DejaVuSans-Bold-45" d="M 588 4666 
L 3834 4666 
L 3834 3756 
L 1791 3756 
L 1791 2888 
L 3713 2888 
L 3713 1978 
L 1791 1978 
L 1791 909 
L 3903 909 
L 3903 0 
L 588 0 
L 588 4666 
z
" transform="scale(0.015625)"/>
      <path id="DejaVuSans-Bold-76" d="M 97 3500 
L 1216 3500 
L 2088 1081 
L 2956 3500 
L 4078 3500 
L 2700 0 
L 1472 0 
L 97 3500 
z
" transform="scale(0.015625)"/>
      <path id="DejaVuSans-Bold-75" d="M 500 1363 
L 500 3500 
L 1625 3500 
L 1625 3150 
Q 1625 2866 1622 2436 
Q 1619 2006 1619 1863 
Q 1619 1441 1641 1255 
Q 1663 1069 1716 984 
Q 1784 875 1895 815 
Q 2006 756 2150 756 
Q 2500 756 2700 1025 
Q 2900 1294 2900 1772 
L 2900 3500 
L 4019 3500 
L 4019 0 
L 2900 0 
L 2900 506 
Q 2647 200 2364 54 
Q 2081 -91 1741 -91 
Q 1134 -91 817 281 
Q 500 653 500 1363 
z
" transform="scale(0.015625)"/>
      <path id="DejaVuSans-Bold-79" d="M 78 3500 
L 1197 3500 
L 2138 1125 
L 2938 3500 
L 4056 3500 
L 2584 -331 
Q 2363 -916 2067 -1148 
Q 1772 -1381 1288 -1381 
L 641 -1381 
L 641 -647 
L 991 -647 
Q 1275 -647 1404 -556 
Q 1534 -466 1606 -231 
L 1638 -134 
L 78 3500 
z
" transform="scale(0.015625)"/>
     </defs>
     <use xlink:href="#DejaVuSans-Bold-45"/>
     <use xlink:href="#DejaVuSans-Bold-76" transform="translate(68.310547 0)"/>
     <use xlink:href="#DejaVuSans-Bold-61" transform="translate(133.496094 0)"/>
     <use xlink:href="#DejaVuSans-Bold-6c" transform="translate(200.976562 0)"/>
     <use xlink:href="#DejaVuSans-Bold-75" transform="translate(235.253906 0)"/>
     <use xlink:href="#DejaVuSans-Bold-61" transform="translate(306.445312 0)"/>
     <use xlink:href="#DejaVuSans-Bold-74" transform="translate(373.925781 0)"/>
     <use xlink:href="#DejaVuSans-Bold-6f" transform="translate(421.728516 0)"/>
     <use xlink:href="#DejaVuSans-Bold-72" transform="translate(490.429688 0)"/>
     <use xlink:href="#DejaVuSans-Bold-2d" transform="translate(539.746094 0)"/>
     <use xlink:href="#DejaVuSans-Bold-6f" transform="translate(581.25 0)"/>
     <use xlink:href="#DejaVuSans-Bold-6e" transform="translate(649.951172 0)"/>
     <use xlink:href="#DejaVuSans-Bold-6c" transform="translate(721.142578 0)"/>
     <use xlink:href="#DejaVuSans-Bold-79" transform="translate(755.419922 0)"/>
     <use xlink:href="#DejaVuSans-Bold-20" transform="translate(820.605469 0)"/>
     <use xlink:href="#DejaVuSans-Bold-70" transform="translate(855.419922 0)"/>
     <use xlink:href="#DejaVuSans-Bold-6c" transform="translate(927.001953 0)"/>
     <use xlink:href="#DejaVuSans-Bold-61" transform="translate(961.279297 0)"/>
     <use xlink:href="#DejaVuSans-Bold-6e" transform="translate(1028.759766 0)"/>
     <use xlink:href="#DejaVuSans-Bold-65" transform="translate(1099.951172 0)"/>
    </g>
   </g>
   <g id="text_7">
    <!-- • later incident outcome -->
    <g style="fill: #17313f" transform="translate(390.701719 109.764) scale(0.105 -0.105)">
     <use xlink:href="#DejaVuSans-2022"/>
     <use xlink:href="#DejaVuSans-20" transform="translate(58.984375 0)"/>
     <use xlink:href="#DejaVuSans-6c" transform="translate(90.771484 0)"/>
     <use xlink:href="#DejaVuSans-61" transform="translate(118.554688 0)"/>
     <use xlink:href="#DejaVuSans-74" transform="translate(179.833984 0)"/>
     <use xlink:href="#DejaVuSans-65" transform="translate(219.042969 0)"/>
     <use xlink:href="#DejaVuSans-72" transform="translate(280.566406 0)"/>
     <use xlink:href="#DejaVuSans-20" transform="translate(321.679688 0)"/>
     <use xlink:href="#DejaVuSans-69" transform="translate(353.466797 0)"/>
     <use xlink:href="#DejaVuSans-6e" transform="translate(381.25 0)"/>
     <use xlink:href="#DejaVuSans-63" transform="translate(444.628906 0)"/>
     <use xlink:href="#DejaVuSans-69" transform="translate(499.609375 0)"/>
     <use xlink:href="#DejaVuSans-64" transform="translate(527.392578 0)"/>
     <use xlink:href="#DejaVuSans-65" transform="translate(590.869141 0)"/>
     <use xlink:href="#DejaVuSans-6e" transform="translate(652.392578 0)"/>
     <use xlink:href="#DejaVuSans-74" transform="translate(715.771484 0)"/>
     <use xlink:href="#DejaVuSans-20" transform="translate(754.980469 0)"/>
     <use xlink:href="#DejaVuSans-6f" transform="translate(786.767578 0)"/>
     <use xlink:href="#DejaVuSans-75" transform="translate(847.949219 0)"/>
     <use xlink:href="#DejaVuSans-74" transform="translate(911.328125 0)"/>
     <use xlink:href="#DejaVuSans-63" transform="translate(950.537109 0)"/>
     <use xlink:href="#DejaVuSans-6f" transform="translate(1005.517578 0)"/>
     <use xlink:href="#DejaVuSans-6d" transform="translate(1066.699219 0)"/>
     <use xlink:href="#DejaVuSans-65" transform="translate(1164.111328 0)"/>
    </g>
   </g>
   <g id="text_8">
    <!-- • protocol/mechanism adjudication -->
    <g style="fill: #17313f" transform="translate(390.701719 141.9192) scale(0.105 -0.105)">
     <defs>
      <path id="DejaVuSans-68" d="M 3513 2113 
L 3513 0 
L 2938 0 
L 2938 2094 
Q 2938 2591 2744 2837 
Q 2550 3084 2163 3084 
Q 1697 3084 1428 2787 
Q 1159 2491 1159 1978 
L 1159 0 
L 581 0 
L 581 4863 
L 1159 4863 
L 1159 2956 
Q 1366 3272 1645 3428 
Q 1925 3584 2291 3584 
Q 2894 3584 3203 3211 
Q 3513 2838 3513 2113 
z
" transform="scale(0.015625)"/>
      <path id="DejaVuSans-6a" d="M 603 3500 
L 1178 3500 
L 1178 -63 
Q 1178 -731 923 -1031 
Q 669 -1331 103 -1331 
L -116 -1331 
L -116 -844 
L 38 -844 
Q 366 -844 484 -692 
Q 603 -541 603 -63 
L 603 3500 
z
M 603 4863 
L 1178 4863 
L 1178 4134 
L 603 4134 
L 603 4863 
z
" transform="scale(0.015625)"/>
     </defs>
     <use xlink:href="#DejaVuSans-2022"/>
     <use xlink:href="#DejaVuSans-20" transform="translate(58.984375 0)"/>
     <use xlink:href="#DejaVuSans-70" transform="translate(90.771484 0)"/>
     <use xlink:href="#DejaVuSans-72" transform="translate(154.248047 0)"/>
     <use xlink:href="#DejaVuSans-6f" transform="translate(193.111328 0)"/>
     <use xlink:href="#DejaVuSans-74" transform="translate(254.292969 0)"/>
     <use xlink:href="#DejaVuSans-6f" transform="translate(293.501953 0)"/>
     <use xlink:href="#DejaVuSans-63" transform="translate(354.683594 0)"/>
     <use xlink:href="#DejaVuSans-6f" transform="translate(409.664062 0)"/>
     <use xlink:href="#DejaVuSans-6c" transform="translate(470.845703 0)"/>
     <use xlink:href="#DejaVuSans-2f" transform="translate(498.628906 0)"/>
     <use xlink:href="#DejaVuSans-6d" transform="translate(532.320312 0)"/>
     <use xlink:href="#DejaVuSans-65" transform="translate(629.732422 0)"/>
     <use xlink:href="#DejaVuSans-63" transform="translate(691.255859 0)"/>
     <use xlink:href="#DejaVuSans-68" transform="translate(746.236328 0)"/>
     <use xlink:href="#DejaVuSans-61" transform="translate(809.615234 0)"/>
     <use xlink:href="#DejaVuSans-6e" transform="translate(870.894531 0)"/>
     <use xlink:href="#DejaVuSans-69" transform="translate(934.273438 0)"/>
     <use xlink:href="#DejaVuSans-73" transform="translate(962.056641 0)"/>
     <use xlink:href="#DejaVuSans-6d" transform="translate(1014.15625 0)"/>
     <use xlink:href="#DejaVuSans-20" transform="translate(1111.568359 0)"/>
     <use xlink:href="#DejaVuSans-61" transform="translate(1143.355469 0)"/>
     <use xlink:href="#DejaVuSans-64" transform="translate(1204.634766 0)"/>
     <use xlink:href="#DejaVuSans-6a" transform="translate(1268.111328 0)"/>
     <use xlink:href="#DejaVuSans-75" transform="translate(1295.894531 0)"/>
     <use xlink:href="#DejaVuSans-64" transform="translate(1359.273438 0)"/>
     <use xlink:href="#DejaVuSans-69" transform="translate(1422.75 0)"/>
     <use xlink:href="#DejaVuSans-63" transform="translate(1450.533203 0)"/>
     <use xlink:href="#DejaVuSans-61" transform="translate(1505.513672 0)"/>
     <use xlink:href="#DejaVuSans-74" transform="translate(1566.792969 0)"/>
     <use xlink:href="#DejaVuSans-69" transform="translate(1606.001953 0)"/>
     <use xlink:href="#DejaVuSans-6f" transform="translate(1633.785156 0)"/>
     <use xlink:href="#DejaVuSans-6e" transform="translate(1694.966797 0)"/>
    </g>
   </g>
   <g id="text_9">
    <!-- • attacker-family attribution -->
    <g style="fill: #17313f" transform="translate(390.701719 174.0744) scale(0.105 -0.105)">
     <defs>
      <path id="DejaVuSans-6b" d="M 581 4863 
L 1159 4863 
L 1159 1991 
L 2875 3500 
L 3609 3500 
L 1753 1863 
L 3688 0 
L 2938 0 
L 1159 1709 
L 1159 0 
L 581 0 
L 581 4863 
z
" transform="scale(0.015625)"/>
     </defs>
     <use xlink:href="#DejaVuSans-2022"/>
     <use xlink:href="#DejaVuSans-20" transform="translate(58.984375 0)"/>
     <use xlink:href="#DejaVuSans-61" transform="translate(90.771484 0)"/>
     <use xlink:href="#DejaVuSans-74" transform="translate(152.050781 0)"/>
     <use xlink:href="#DejaVuSans-74" transform="translate(191.259766 0)"/>
     <use xlink:href="#DejaVuSans-61" transform="translate(230.46875 0)"/>
     <use xlink:href="#DejaVuSans-63" transform="translate(291.748047 0)"/>
     <use xlink:href="#DejaVuSans-6b" transform="translate(346.728516 0)"/>
     <use xlink:href="#DejaVuSans-65" transform="translate(401.013672 0)"/>
     <use xlink:href="#DejaVuSans-72" transform="translate(462.537109 0)"/>
     <use xlink:href="#DejaVuSans-2d" transform="translate(497.275391 0)"/>
     <use xlink:href="#DejaVuSans-66" transform="translate(533.359375 0)"/>
     <use xlink:href="#DejaVuSans-61" transform="translate(568.564453 0)"/>
     <use xlink:href="#DejaVuSans-6d" transform="translate(629.84375 0)"/>
     <use xlink:href="#DejaVuSans-69" transform="translate(727.255859 0)"/>
     <use xlink:href="#DejaVuSans-6c" transform="translate(755.039062 0)"/>
     <use xlink:href="#DejaVuSans-79" transform="translate(782.822266 0)"/>
     <use xlink:href="#DejaVuSans-20" transform="translate(842.001953 0)"/>
     <use xlink:href="#DejaVuSans-61" transform="translate(873.789062 0)"/>
     <use xlink:href="#DejaVuSans-74" transform="translate(935.068359 0)"/>
     <use xlink:href="#DejaVuSans-74" transform="translate(974.277344 0)"/>
     <use xlink:href="#DejaVuSans-72" transform="translate(1013.486328 0)"/>
     <use xlink:href="#DejaVuSans-69" transform="translate(1054.599609 0)"/>
     <use xlink:href="#DejaVuSans-62" transform="translate(1082.382812 0)"/>
     <use xlink:href="#DejaVuSans-75" transform="translate(1145.859375 0)"/>
     <use xlink:href="#DejaVuSans-74" transform="translate(1209.238281 0)"/>
     <use xlink:href="#DejaVuSans-69" transform="translate(1248.447266 0)"/>
     <use xlink:href="#DejaVuSans-6f" transform="translate(1276.230469 0)"/>
     <use xlink:href="#DejaVuSans-6e" transform="translate(1337.412109 0)"/>
    </g>
   </g>
   <g id="text_10">
    <!-- • censoring and follow-up -->
    <g style="fill: #17313f" transform="translate(390.701719 206.2296) scale(0.105 -0.105)">
     <defs>
      <path id="DejaVuSans-67" d="M 2906 1791 
Q 2906 2416 2648 2759 
Q 2391 3103 1925 3103 
Q 1463 3103 1205 2759 
Q 947 2416 947 1791 
Q 947 1169 1205 825 
Q 1463 481 1925 481 
Q 2391 481 2648 825 
Q 2906 1169 2906 1791 
z
M 3481 434 
Q 3481 -459 3084 -895 
Q 2688 -1331 1869 -1331 
Q 1566 -1331 1297 -1286 
Q 1028 -1241 775 -1147 
L 775 -588 
Q 1028 -725 1275 -790 
Q 1522 -856 1778 -856 
Q 2344 -856 2625 -561 
Q 2906 -266 2906 331 
L 2906 616 
Q 2728 306 2450 153 
Q 2172 0 1784 0 
Q 1141 0 747 490 
Q 353 981 353 1791 
Q 353 2603 747 3093 
Q 1141 3584 1784 3584 
Q 2172 3584 2450 3431 
Q 2728 3278 2906 2969 
L 2906 3500 
L 3481 3500 
L 3481 434 
z
" transform="scale(0.015625)"/>
      <path id="DejaVuSans-77" d="M 269 3500 
L 844 3500 
L 1563 769 
L 2278 3500 
L 2956 3500 
L 3675 769 
L 4391 3500 
L 4966 3500 
L 4050 0 
L 3372 0 
L 2619 2869 
L 1863 0 
L 1184 0 
L 269 3500 
z
" transform="scale(0.015625)"/>
     </defs>
     <use xlink:href="#DejaVuSans-2022"/>
     <use xlink:href="#DejaVuSans-20" transform="translate(58.984375 0)"/>
     <use xlink:href="#DejaVuSans-63" transform="translate(90.771484 0)"/>
     <use xlink:href="#DejaVuSans-65" transform="translate(145.751953 0)"/>
     <use xlink:href="#DejaVuSans-6e" transform="translate(207.275391 0)"/>
     <use xlink:href="#DejaVuSans-73" transform="translate(270.654297 0)"/>
     <use xlink:href="#DejaVuSans-6f" transform="translate(322.753906 0)"/>
     <use xlink:href="#DejaVuSans-72" transform="translate(383.935547 0)"/>
     <use xlink:href="#DejaVuSans-69" transform="translate(425.048828 0)"/>
     <use xlink:href="#DejaVuSans-6e" transform="translate(452.832031 0)"/>
     <use xlink:href="#DejaVuSans-67" transform="translate(516.210938 0)"/>
     <use xlink:href="#DejaVuSans-20" transform="translate(579.6875 0)"/>
     <use xlink:href="#DejaVuSans-61" transform="translate(611.474609 0)"/>
     <use xlink:href="#DejaVuSans-6e" transform="translate(672.753906 0)"/>
     <use xlink:href="#DejaVuSans-64" transform="translate(736.132812 0)"/>
     <use xlink:href="#DejaVuSans-20" transform="translate(799.609375 0)"/>
     <use xlink:href="#DejaVuSans-66" transform="translate(831.396484 0)"/>
     <use xlink:href="#DejaVuSans-6f" transform="translate(866.601562 0)"/>
     <use xlink:href="#DejaVuSans-6c" transform="translate(927.783203 0)"/>
     <use xlink:href="#DejaVuSans-6c" transform="translate(955.566406 0)"/>
     <use xlink:href="#DejaVuSans-6f" transform="translate(983.349609 0)"/>
     <use xlink:href="#DejaVuSans-77" transform="translate(1044.53125 0)"/>
     <use xlink:href="#DejaVuSans-2d" transform="translate(1126.318359 0)"/>
     <use xlink:href="#DejaVuSans-75" transform="translate(1162.402344 0)"/>
     <use xlink:href="#DejaVuSans-70" transform="translate(1225.78125 0)"/>
    </g>
   </g>
   <g id="text_11">
    <!-- access boundary -->
    <g style="fill: #8a5b22" transform="translate(315.280172 125.8416) scale(0.09 -0.09)">
     <use xlink:href="#DejaVuSans-61"/>
     <use xlink:href="#DejaVuSans-63" transform="translate(61.279297 0)"/>
     <use xlink:href="#DejaVuSans-63" transform="translate(116.259766 0)"/>
     <use xlink:href="#DejaVuSans-65" transform="translate(171.240234 0)"/>
     <use xlink:href="#DejaVuSans-73" transform="translate(232.763672 0)"/>
     <use xlink:href="#DejaVuSans-73" transform="translate(284.863281 0)"/>
     <use xlink:href="#DejaVuSans-20" transform="translate(336.962891 0)"/>
     <use xlink:href="#DejaVuSans-62" transform="translate(368.75 0)"/>
     <use xlink:href="#DejaVuSans-6f" transform="translate(432.226562 0)"/>
     <use xlink:href="#DejaVuSans-75" transform="translate(493.408203 0)"/>
     <use xlink:href="#DejaVuSans-6e" transform="translate(556.787109 0)"/>
     <use xlink:href="#DejaVuSans-64" transform="translate(620.166016 0)"/>
     <use xlink:href="#DejaVuSans-61" transform="translate(683.642578 0)"/>
     <use xlink:href="#DejaVuSans-72" transform="translate(744.921875 0)"/>
     <use xlink:href="#DejaVuSans-79" transform="translate(786.035156 0)"/>
    </g>
   </g>
   <g id="text_12">
    <!-- Evaluator-only information may audit contamination but must never enter model inputs, prompts, tools, or retrieval. -->
    <g style="fill: #17313f" transform="translate(7.2 264.996) scale(0.105 -0.105)">
     <defs>
      <path id="DejaVuSans-Bold-66" d="M 2841 4863 
L 2841 4128 
L 2222 4128 
Q 1984 4128 1890 4042 
Q 1797 3956 1797 3744 
L 1797 3500 
L 2753 3500 
L 2753 2700 
L 1797 2700 
L 1797 0 
L 678 0 
L 678 2700 
L 122 2700 
L 122 3500 
L 678 3500 
L 678 3744 
Q 678 4316 997 4589 
Q 1316 4863 1984 4863 
L 2841 4863 
z
" transform="scale(0.015625)"/>
      <path id="DejaVuSans-Bold-2c" d="M 653 1209 
L 1778 1209 
L 1778 256 
L 1006 -909 
L 341 -909 
L 653 256 
L 653 1209 
z
" transform="scale(0.015625)"/>
      <path id="DejaVuSans-Bold-2e" d="M 653 1209 
L 1778 1209 
L 1778 0 
L 653 0 
L 653 1209 
z
" transform="scale(0.015625)"/>
     </defs>
     <use xlink:href="#DejaVuSans-Bold-45"/>
     <use xlink:href="#DejaVuSans-Bold-76" transform="translate(68.310547 0)"/>
     <use xlink:href="#DejaVuSans-Bold-61" transform="translate(133.496094 0)"/>
     <use xlink:href="#DejaVuSans-Bold-6c" transform="translate(200.976562 0)"/>
     <use xlink:href="#DejaVuSans-Bold-75" transform="translate(235.253906 0)"/>
     <use xlink:href="#DejaVuSans-Bold-61" transform="translate(306.445312 0)"/>
     <use xlink:href="#DejaVuSans-Bold-74" transform="translate(373.925781 0)"/>
     <use xlink:href="#DejaVuSans-Bold-6f" transform="translate(421.728516 0)"/>
     <use xlink:href="#DejaVuSans-Bold-72" transform="translate(490.429688 0)"/>
     <use xlink:href="#DejaVuSans-Bold-2d" transform="translate(539.746094 0)"/>
     <use xlink:href="#DejaVuSans-Bold-6f" transform="translate(581.25 0)"/>
     <use xlink:href="#DejaVuSans-Bold-6e" transform="translate(649.951172 0)"/>
     <use xlink:href="#DejaVuSans-Bold-6c" transform="translate(721.142578 0)"/>
     <use xlink:href="#DejaVuSans-Bold-79" transform="translate(755.419922 0)"/>
     <use xlink:href="#DejaVuSans-Bold-20" transform="translate(820.605469 0)"/>
     <use xlink:href="#DejaVuSans-Bold-69" transform="translate(855.419922 0)"/>
     <use xlink:href="#DejaVuSans-Bold-6e" transform="translate(889.697266 0)"/>
     <use xlink:href="#DejaVuSans-Bold-66" transform="translate(960.888672 0)"/>
     <use xlink:href="#DejaVuSans-Bold-6f" transform="translate(1004.394531 0)"/>
     <use xlink:href="#DejaVuSans-Bold-72" transform="translate(1073.095703 0)"/>
     <use xlink:href="#DejaVuSans-Bold-6d" transform="translate(1122.412109 0)"/>
     <use xlink:href="#DejaVuSans-Bold-61" transform="translate(1226.611328 0)"/>
     <use xlink:href="#DejaVuSans-Bold-74" transform="translate(1294.091797 0)"/>
     <use xlink:href="#DejaVuSans-Bold-69" transform="translate(1341.894531 0)"/>
     <use xlink:href="#DejaVuSans-Bold-6f" transform="translate(1376.171875 0)"/>
     <use xlink:href="#DejaVuSans-Bold-6e" transform="translate(1444.873047 0)"/>
     <use xlink:href="#DejaVuSans-Bold-20" transform="translate(1516.064453 0)"/>
     <use xlink:href="#DejaVuSans-Bold-6d" transform="translate(1550.878906 0)"/>
     <use xlink:href="#DejaVuSans-Bold-61" transform="translate(1655.078125 0)"/>
     <use xlink:href="#DejaVuSans-Bold-79" transform="translate(1719.433594 0)"/>
     <use xlink:href="#DejaVuSans-Bold-20" transform="translate(1784.619141 0)"/>
     <use xlink:href="#DejaVuSans-Bold-61" transform="translate(1819.433594 0)"/>
     <use xlink:href="#DejaVuSans-Bold-75" transform="translate(1886.914062 0)"/>
     <use xlink:href="#DejaVuSans-Bold-64" transform="translate(1958.105469 0)"/>
     <use xlink:href="#DejaVuSans-Bold-69" transform="translate(2029.6875 0)"/>
     <use xlink:href="#DejaVuSans-Bold-74" transform="translate(2063.964844 0)"/>
     <use xlink:href="#DejaVuSans-Bold-20" transform="translate(2111.767578 0)"/>
     <use xlink:href="#DejaVuSans-Bold-63" transform="translate(2146.582031 0)"/>
     <use xlink:href="#DejaVuSans-Bold-6f" transform="translate(2205.859375 0)"/>
     <use xlink:href="#DejaVuSans-Bold-6e" transform="translate(2274.560547 0)"/>
     <use xlink:href="#DejaVuSans-Bold-74" transform="translate(2345.751953 0)"/>
     <use xlink:href="#DejaVuSans-Bold-61" transform="translate(2393.554688 0)"/>
     <use xlink:href="#DejaVuSans-Bold-6d" transform="translate(2461.035156 0)"/>
     <use xlink:href="#DejaVuSans-Bold-69" transform="translate(2565.234375 0)"/>
     <use xlink:href="#DejaVuSans-Bold-6e" transform="translate(2599.511719 0)"/>
     <use xlink:href="#DejaVuSans-Bold-61" transform="translate(2670.703125 0)"/>
     <use xlink:href="#DejaVuSans-Bold-74" transform="translate(2738.183594 0)"/>
     <use xlink:href="#DejaVuSans-Bold-69" transform="translate(2785.986328 0)"/>
     <use xlink:href="#DejaVuSans-Bold-6f" transform="translate(2820.263672 0)"/>
     <use xlink:href="#DejaVuSans-Bold-6e" transform="translate(2888.964844 0)"/>
     <use xlink:href="#DejaVuSans-Bold-20" transform="translate(2960.15625 0)"/>
     <use xlink:href="#DejaVuSans-Bold-62" transform="translate(2994.970703 0)"/>
     <use xlink:href="#DejaVuSans-Bold-75" transform="translate(3066.552734 0)"/>
     <use xlink:href="#DejaVuSans-Bold-74" transform="translate(3137.744141 0)"/>
     <use xlink:href="#DejaVuSans-Bold-20" transform="translate(3185.546875 0)"/>
     <use xlink:href="#DejaVuSans-Bold-6d" transform="translate(3220.361328 0)"/>
     <use xlink:href="#DejaVuSans-Bold-75" transform="translate(3324.560547 0)"/>
     <use xlink:href="#DejaVuSans-Bold-73" transform="translate(3395.751953 0)"/>
     <use xlink:href="#DejaVuSans-Bold-74" transform="translate(3455.273438 0)"/>
     <use xlink:href="#DejaVuSans-Bold-20" transform="translate(3503.076172 0)"/>
     <use xlink:href="#DejaVuSans-Bold-6e" transform="translate(3537.890625 0)"/>
     <use xlink:href="#DejaVuSans-Bold-65" transform="translate(3609.082031 0)"/>
     <use xlink:href="#DejaVuSans-Bold-76" transform="translate(3676.904297 0)"/>
     <use xlink:href="#DejaVuSans-Bold-65" transform="translate(3742.089844 0)"/>
     <use xlink:href="#DejaVuSans-Bold-72" transform="translate(3809.912109 0)"/>
     <use xlink:href="#DejaVuSans-Bold-20" transform="translate(3859.228516 0)"/>
     <use xlink:href="#DejaVuSans-Bold-65" transform="translate(3894.042969 0)"/>
     <use xlink:href="#DejaVuSans-Bold-6e" transform="translate(3961.865234 0)"/>
     <use xlink:href="#DejaVuSans-Bold-74" transform="translate(4033.056641 0)"/>
     <use xlink:href="#DejaVuSans-Bold-65" transform="translate(4080.859375 0)"/>
     <use xlink:href="#DejaVuSans-Bold-72" transform="translate(4148.681641 0)"/>
     <use xlink:href="#DejaVuSans-Bold-20" transform="translate(4197.998047 0)"/>
     <use xlink:href="#DejaVuSans-Bold-6d" transform="translate(4232.8125 0)"/>
     <use xlink:href="#DejaVuSans-Bold-6f" transform="translate(4337.011719 0)"/>
     <use xlink:href="#DejaVuSans-Bold-64" transform="translate(4405.712891 0)"/>
     <use xlink:href="#DejaVuSans-Bold-65" transform="translate(4477.294922 0)"/>
     <use xlink:href="#DejaVuSans-Bold-6c" transform="translate(4545.117188 0)"/>
     <use xlink:href="#DejaVuSans-Bold-20" transform="translate(4579.394531 0)"/>
     <use xlink:href="#DejaVuSans-Bold-69" transform="translate(4614.208984 0)"/>
     <use xlink:href="#DejaVuSans-Bold-6e" transform="translate(4648.486328 0)"/>
     <use xlink:href="#DejaVuSans-Bold-70" transform="translate(4719.677734 0)"/>
     <use xlink:href="#DejaVuSans-Bold-75" transform="translate(4791.259766 0)"/>
     <use xlink:href="#DejaVuSans-Bold-74" transform="translate(4862.451172 0)"/>
     <use xlink:href="#DejaVuSans-Bold-73" transform="translate(4910.253906 0)"/>
     <use xlink:href="#DejaVuSans-Bold-2c" transform="translate(4969.775391 0)"/>
     <use xlink:href="#DejaVuSans-Bold-20" transform="translate(5007.763672 0)"/>
     <use xlink:href="#DejaVuSans-Bold-70" transform="translate(5042.578125 0)"/>
     <use xlink:href="#DejaVuSans-Bold-72" transform="translate(5114.160156 0)"/>
     <use xlink:href="#DejaVuSans-Bold-6f" transform="translate(5163.476562 0)"/>
     <use xlink:href="#DejaVuSans-Bold-6d" transform="translate(5232.177734 0)"/>
     <use xlink:href="#DejaVuSans-Bold-70" transform="translate(5336.376953 0)"/>
     <use xlink:href="#DejaVuSans-Bold-74" transform="translate(5407.958984 0)"/>
     <use xlink:href="#DejaVuSans-Bold-73" transform="translate(5455.761719 0)"/>
     <use xlink:href="#DejaVuSans-Bold-2c" transform="translate(5515.283203 0)"/>
     <use xlink:href="#DejaVuSans-Bold-20" transform="translate(5553.271484 0)"/>
     <use xlink:href="#DejaVuSans-Bold-74" transform="translate(5588.085938 0)"/>
     <use xlink:href="#DejaVuSans-Bold-6f" transform="translate(5635.888672 0)"/>
     <use xlink:href="#DejaVuSans-Bold-6f" transform="translate(5704.589844 0)"/>
     <use xlink:href="#DejaVuSans-Bold-6c" transform="translate(5773.291016 0)"/>
     <use xlink:href="#DejaVuSans-Bold-73" transform="translate(5807.568359 0)"/>
     <use xlink:href="#DejaVuSans-Bold-2c" transform="translate(5867.089844 0)"/>
     <use xlink:href="#DejaVuSans-Bold-20" transform="translate(5905.078125 0)"/>
     <use xlink:href="#DejaVuSans-Bold-6f" transform="translate(5939.892578 0)"/>
     <use xlink:href="#DejaVuSans-Bold-72" transform="translate(6008.59375 0)"/>
     <use xlink:href="#DejaVuSans-Bold-20" transform="translate(6057.910156 0)"/>
     <use xlink:href="#DejaVuSans-Bold-72" transform="translate(6092.724609 0)"/>
     <use xlink:href="#DejaVuSans-Bold-65" transform="translate(6142.041016 0)"/>
     <use xlink:href="#DejaVuSans-Bold-74" transform="translate(6209.863281 0)"/>
     <use xlink:href="#DejaVuSans-Bold-72" transform="translate(6257.666016 0)"/>
     <use xlink:href="#DejaVuSans-Bold-69" transform="translate(6306.982422 0)"/>
     <use xlink:href="#DejaVuSans-Bold-65" transform="translate(6341.259766 0)"/>
     <use xlink:href="#DejaVuSans-Bold-76" transform="translate(6409.082031 0)"/>
     <use xlink:href="#DejaVuSans-Bold-61" transform="translate(6474.267578 0)"/>
     <use xlink:href="#DejaVuSans-Bold-6c" transform="translate(6541.748047 0)"/>
     <use xlink:href="#DejaVuSans-Bold-2e" transform="translate(6576.025391 0)"/>
    </g>
   </g>
  </g>
 </g>
 <defs>
  <clipPath id="p74bb7a5fe8">
   <rect x="61.481719" y="7.2" width="585.9" height="277.2"/>
  </clipPath>
 </defs>
</svg>
